# xmcd
#
# Track frame offsets: 
#        151
#        26832
#        54364
#        71136
#        94753
#        113430
#        144422
#        162222
#        174919
#        192665
#        210192
#        233366
#        251458
#        268874
#
# Disc length: 3762 seconds
#
# Revision: 0
# Processed by: cddbd v1.5.2PL0 Copyright (c) Steve Scherf et al.
# Submitted via: ExactAudioCopy v0.95a5
#
DISCID=b60eb00e
DTITLE=Various Artist - Urban Legends Of New Jersey
DYEAR=2006
DGENRE=Blues
TTITLE0=The NRG Band - Voodoo Woman
TTITLE1=Dave Gross - I'm Leavin' Baby
TTITLE2=Enzo and The Bakers - Blame Me (Don't Blame My Heart)
TTITLE3=Sweet Suzi and The Blues Experience - Does Your Wife Know?
TTITLE4=Son Lewis Blues Band - Evalina
TTITLE5=Hard Bargain - Just Got Back From Baby's
TTITLE6=Dave Gross - Mess On My Plate
TTITLE7=Russ Gurney - Sister Sadie
TTITLE8=The Bassboards - Love Me Like A Man
TTITLE9=Jimbeau and The Retrocasters - That Woman's Cold\\
TTITLE10=Charlie Jones - Pretty Little Sattelite
TTITLE11=Lone Shark - Killing Floor
TTITLE12=Plainfield Slim - Rattle That Box
TTITLE13=Kevin Kiley - Down In the Alley
EXTD=
EXTT0=
EXTT1=
EXTT2=
EXTT3=
EXTT4=
EXTT5=
EXTT6=
EXTT7=
EXTT8=
EXTT9=
EXTT10=
EXTT11=
EXTT12=
EXTT13=
PLAYORDER=
